<svg height="512pt" viewBox="-104 0 512 512.00091" width="512pt" xmlns="http://www.w3.org/2000/svg"><path d="m288.085938 130.332031 10.300781-2.472656-4.449219-9.601563c-6.476562-13.984374-29.472656-38.386718-70.128906-30.890624-2.941406.546874-5.773438 1.34375-8.550782 2.308593 15.820313-26.007812 49.066407-46.144531 72.976563-52.320312l16.402344-4.230469-13.023438-10.824219c-1.289062-1.074219-32.023437-26.304687-70.980469-21.753906-31.625 3.660156-55.5 17.175781-71.242187 40.0625-11.527344-6.988281-26.082031-12.042969-44.445313-14.019531-36.625-3.917969-65.691406 18.160156-66.914062 19.097656l-14.3125 11.070312 17.597656 4.222657c26.371094 6.320312 62.546875 28.113281 73.484375 54.789062-2.894531-.9375-5.910156-1.789062-9.195312-2.394531-51.996094-9.621094-61.558594 22.15625-61.941407 23.511719l-2.441406 8.675781 8.773438 2.109375c23.890625 5.730469 35.167968 15.195313 40.5 22.753906-34.511719 7.351563-57.910156 22.652344-72.03125 46.71875-18.4726565 31.46875-18.464844 74.265625-18.464844 119.570313v1.90625c0 95.601562 65.902344 173.378906 146.898438 173.378906h3.953124c80.992188 0 146.886719-77.777344 146.886719-173.378906v-1.90625c0-28.675782-.027343-56.324219-4.707031-80.753906l.265625-.171876-.464844-.703124c-2.722656-13.828126-6.910156-26.640626-13.550781-37.945313-12.820312-21.84375-33.296875-36.46875-62.773438-44.480469 12.570313-13.886718 38.679688-34.4375 71.578126-42.328125zm-65.457032-112.558593c17.277344-1.976563 32.976563 3.539062 43.65625 8.964843-30.886718 13.359375-67.746094 41.808594-75.828125 77.976563-.128906.113281-.242187.234375-.363281.347656-.035156-.183594-.078125-.363281-.109375-.546875-.210937-1.160156-.46875-2.347656-.710937-3.535156-.242188-1.171875-.46875-2.335938-.746094-3.511719-.347656-1.457031-.753906-2.921875-1.164063-4.394531-.242187-.878907-.476562-1.742188-.742187-2.628907-.539063-1.761718-1.148438-3.519531-1.777344-5.28125-.199219-.535156-.382812-1.074218-.589844-1.609374-.78125-2.054688-1.648437-4.085938-2.578125-6.113282-.085937-.191406-.171875-.371094-.257812-.5625-4.273438-9.191406-10.175781-18.039062-18.308594-25.746094 12.863281-19.054687 32.84375-30.28125 59.519531-33.359374zm-158.140625 32.699218c9.882813-4.324218 23.5625-8.242187 38.601563-6.648437 19.65625 2.113281 34.042968 8.445312 44.621094 17.140625 1.933593 1.59375 3.753906 3.25 5.425781 4.992187.355469.363281.753906.710938 1.101562 1.082031 2.070313 2.261719 3.9375 4.640626 5.625 7.082032.226563.324218.425781.652344.640625.972656 1.632813 2.453125 3.113282 4.96875 4.40625 7.542969.027344.042969.042969.085937.070313.128906 2.789062 5.59375 4.828125 11.410156 6.300781 17.183594.027344.085937.042969.171875.070312.257812 1.429688 5.667969 2.304688 11.277344 2.816407 16.59375.042969.46875.070312.933594.113281 1.402344.113281 1.328125.171875 2.582031.242188 3.867187-.375.484376-.78125.96875-1.144532 1.457032-.980468 1.03125-1.742187 2.148437-2.273437 3.109375-.414063.589843-.761719 1.171875-1.160157 1.761719-1.28125 1.863281-2.507812 3.710937-3.675781 5.558593-.398437.640625-.789062 1.265625-1.179687 1.898438-1.351563 2.191406-2.617188 4.339843-3.8125 6.464843-.164063.285157-.332032.574219-.484375.859376-2.777344 4.984374-5.117188 9.648437-7 13.695312-2.761719-10.132812-8.378907-21.230469-18.480469-29.875-2.875-34.03125-38.074219-62.804688-70.824219-76.527344zm44.324219 116.945313c-5-10.59375-16.417969-24.1875-42.355469-33.039063 5.722657-4.054687 16.4375-7.585937 35.976563-3.960937 8.824218 1.640625 15.363281 4.96875 20.414062 8.988281 1.199219.953125 2.316406 1.941406 3.339844 2.976562.554688.5625 1.097656 1.117188 1.613281 1.699219 1.117188 1.292969 2.15625 2.609375 3.058594 3.953125.214844.320313.441406.632813.640625.953125 3.625 5.761719 5.410156 11.710938 6.292969 16.355469-.320313.011719-.613281.035156-.933594.042969-9.945313.261719-19.246094.9375-27.976563 2.003906-.027343.019531-.050781.027344-.070312.027344zm155.496094 58.496093c.105468.183594.175781.382813.277344.566407l-27.992188 27.992187 12.257812 12.253906 18.535157-18.523437 9.1875 13.789063c2.195312 12.578124 3.121093 26.347656 3.511719 41.058593l-11.355469-11.355469-32.136719 32.132813 12.257812 12.257813 19.878907-19.878907 11.207031 11.210938.433594-.433594c.011718 3.234375.019531 6.429687.019531 9.726563v1.90625c0 10.125-.867187 20.011718-2.410156 29.605468l-10.957031-5.476562-30.429688 30.425781 12.257812 12.257813 21.585938-21.585938 3.867188 1.933594c-16.636719 63.058594-65.683594 108.878906-123.472657 108.878906h-3.953125c-57.222656 0-105.820312-44.964844-122.925781-107.070312l2.035156-2.035157 19.878907 19.878907 12.257812-12.257813-32.136719-32.136719-6.359375 6.363282c-1.457031-9.34375-2.308594-18.941407-2.308594-28.78125v-1.90625c0-4.023438.007813-7.941407.015626-11.859376l8.652343-8.652343 19.878907 19.878906 12.257812-12.257813-32.136719-32.136718-8.242187 8.246094c.605468-18.785157 2.160156-36.039063 6.285156-51.121094l1.957031-1.960938 19.878907 19.878906 12.257812-12.257812-25.988281-25.988281c.449219-.832031.777343-1.75 1.265625-2.566407 10.203125-17.390624 26.941406-29.265624 51.164062-36.140624l-30.023437 30.019531 12.257812 12.257812 19.878907-19.878906 19.878906 19.878906 12.257812-12.257812-30.941406-30.9375c4.636719-1.199219 9.5625-2.195313 14.730469-3.042969l1.84375-.285156c12.640625-1.953125 26.910156-2.941406 42.914062-2.941406h3.464844c1.875 0 3.660156.054687 5.488281.078124l.183594.019532c16.21875.25 30.835938 1.601562 43.449219 4.011718l3.148437.605469c1.464844.3125 2.929688.617188 4.351563.953125l-31.546875 31.546875 12.257812 12.257813 19.878906-19.878906 19.878907 19.878906 12.253906-12.257813-31.171875-31.171875c26.511719 6.652344 44.523438 18.917969 55.308594 37.285156zm-95.460938-60.183593c-.011718 0-.019531 0-.027344 0 .988282-2.179688 2.160157-4.613281 3.460938-7.199219.15625-.308594.308594-.613281.464844-.933594.523437-1.023437 1.085937-2.089844 1.648437-3.15625.632813-1.179687 1.28125-2.375 1.96875-3.597656.285157-.519531.5625-1.023438.855469-1.542969 1.1875-2.0625 2.445312-4.167969 3.796875-6.300781.027344-.042969.054687-.078125.078125-.121094 1.394531-2.203125 2.878906-4.433594 4.449219-6.640625l5.15625-6.726562c4.101562-5.046875 8.511719-9.570313 13.152343-13.402344l2.46875-2.035156.015626-.097657c6.261718-4.679687 13.144531-8.148437 20.609374-9.535156 23.691407-4.40625 37.769532 4.890625 45 12.527344-35.675781 11.988281-63.441406 36.566406-74.511718 51.65625-8.824219-1.449219-18.382813-2.386719-28.585938-2.894531zm0 0"/><path d="m86.683594 395.714844-32.136719 32.136718 12.257813 12.257813 19.878906-19.878906 19.875 19.878906 12.257812-12.257813zm0 0"/><path d="m115.226562 471.195312 12.261719 12.257813 19.875-19.875 19.878907 19.875 12.257812-12.257813-32.136719-32.132812zm0 0"/><path d="m175.910156 427.851562 12.257813 12.257813 19.878906-19.878906 19.878906 19.878906 12.257813-12.257813-32.136719-32.136718zm0 0"/><path d="m86.683594 350.878906 19.875 19.878906 12.257812-12.257812-32.132812-32.136719-32.136719 32.136719 12.257813 12.257812zm0 0"/><path d="m115.226562 393.175781 12.261719 12.257813 19.875-19.878906 19.878907 19.878906 12.257812-12.257813-32.136719-32.136719zm0 0"/><path d="m175.910156 358.5 12.257813 12.257812 19.878906-19.878906 19.878906 19.878906 12.257813-12.257812-32.136719-32.136719zm0 0"/><path d="m86.683594 281.527344 19.875 19.878906 12.257812-12.257812-32.132812-32.136719-32.136719 32.136719 12.257813 12.257812zm0 0"/><path d="m147.363281 291.6875-32.136719 32.136719 12.261719 12.257812 19.875-19.878906 19.878907 19.878906 12.257812-12.257812zm0 0"/><path d="m175.910156 289.148438 12.257813 12.257812 19.878906-19.878906 19.878906 19.878906 12.257813-12.257812-32.136719-32.136719zm0 0"/><path d="m147.363281 246.851562 19.878907 19.878907 12.257812-12.257813-32.136719-32.136718-32.136719 32.136718 12.261719 12.257813zm0 0"/></svg>