<?xml version="1.0"?>
<svg xmlns="http://www.w3.org/2000/svg" viewBox="0 0 64 64" width="512" height="512"><g id="outline"><path d="M26.126,2.892A2.944,2.944,0,0,0,24,2a2.977,2.977,0,0,0-2,.783A2.936,2.936,0,0,0,20,2a2.977,2.977,0,0,0-2,.783A2.936,2.936,0,0,0,16,2a3,3,0,0,0-2.816,2H9A2.987,2.987,0,0,0,6.78,9,2.987,2.987,0,0,0,9,14h4V35.049c-.1.079-.2.156-.3.236L9.707,32.293,8.293,33.707,11.2,36.614c-.372.361-.721.735-1.057,1.115L8.707,36.293,7.293,37.707l1.6,1.6A14.966,14.966,0,0,0,6,48a14.042,14.042,0,0,0,.161,2H3a1,1,0,0,0-1,1v2a5.006,5.006,0,0,0,5,5H8v3a1,1,0,0,0,1,1H55a1,1,0,0,0,1-1V58h1a5.006,5.006,0,0,0,5-5V51a1,1,0,0,0-1-1H57.839A14.042,14.042,0,0,0,58,48a14.529,14.529,0,0,0-1.409-6.177l4.116-4.116-1.414-1.414-3.6,3.6-.538-1.634,4.548-4.548-1.414-1.414-4.9,4.9a22.613,22.613,0,0,0-4.429-3.6A5.007,5.007,0,0,0,52,29V27H49a5,5,0,0,0-4.917,4.175A31.844,31.844,0,0,0,39,29.715V29a5.006,5.006,0,0,0-5-5H31v3a4.953,4.953,0,0,0,.43,2.011,35.377,35.377,0,0,0-4.43.345V14H62V4H26.819A2.864,2.864,0,0,0,26.126,2.892ZM27,6H60V8H27Zm0,4H60v2H27ZM23,5a1,1,0,0,1,1-1,.974.974,0,0,1,.712.306A.957.957,0,0,1,25,5V29.705c-.677.139-1.346.293-2,.47ZM19,5a1,1,0,0,1,1-1,.974.974,0,0,1,.712.306A.957.957,0,0,1,21,5V30.79c-.684.234-1.35.491-2,.766ZM15,5a1,1,0,0,1,1-1,.974.974,0,0,1,.712.306A.957.957,0,0,1,17,5V32.495q-1.04.539-2,1.147Zm-.572,34.832L16.59,42l-1.3,1.3,1.414,1.414,1.3-1.3,3.145,3.15-3.88,1.293-4.125-4.125Zm26.866,9.456A1,1,0,0,0,41,50H38.619A12,12,0,0,0,44,40V39H20v1a11.913,11.913,0,0,0,.387,2.968l-3.348-3.351A24.686,24.686,0,0,1,32,35c6.989,0,13.423,2.478,17.066,6.514Zm3.981-1.142,3.88,1.293L48.594,50H43.413ZM22.05,41h2.012a8,8,0,0,0,15.876,0H41.95a10,10,0,0,1-19.9,0Zm2.537,9H19.406l-.561-.561,3.88-1.293Zm9.86-4.527a5.945,5.945,0,0,1-4.894,0L32,41.8ZM33.868,41H37.91a5.991,5.991,0,0,1-1.8,3.361Zm-5.977,3.361A5.991,5.991,0,0,1,26.09,41h4.042ZM9,6h4V8H9A1,1,0,0,1,9,6Zm0,6a1,1,0,0,1,0-2h4v2Zm7.578,38H12.114A8.956,8.956,0,0,1,12,48.57a9.315,9.315,0,0,1,.423-2.733ZM12.6,38.011l.244.244L12.3,39.889l-.764-.764C11.871,38.743,12.225,38.373,12.6,38.011Zm-2.284,2.716L11.6,42.016l-.552,1.671a1.019,1.019,0,0,0-.043.237A11.381,11.381,0,0,0,10,48.57,11.164,11.164,0,0,0,10.1,50H8.168A12.151,12.151,0,0,1,8,48,12.968,12.968,0,0,1,10.313,40.727ZM54,60H10V58H54Zm6-8v1a3,3,0,0,1-3,3H7a3,3,0,0,1-3-3V52Zm-8.578-2,.529-.537c-.018.18-.036.36-.065.537Zm4.34-4.348A11.831,11.831,0,0,1,55.832,50H53.9a11.164,11.164,0,0,0,.1-1.43,10.8,10.8,0,0,0-.064-1.092Zm-1.686-4.294.781,2.371-4.125,4.125-3.88-1.293L50,43.411l1.3,1.3,1.414-1.414L51.41,42l1.856-1.858C53.56,40.536,53.827,40.944,54.076,41.358ZM49,29h1a3,3,0,0,1-3,3H46A3,3,0,0,1,49,29ZM33,26h1a3,3,0,0,1,3,3v1H36a3,3,0,0,1-3-3Zm-1,5c.358,0,.708.011,1.058.023A4.956,4.956,0,0,0,36,32h3v-.244a29.32,29.32,0,0,1,5,1.54V34h1.571a21.926,21.926,0,0,1,6.4,4.6L50.483,40.1C46.452,35.7,39.5,33,32,33c-6.325,0-12.219,1.9-16.383,5.193l-.923-.924a.5.5,0,0,0-.051-.04l-.54-.54C18.5,33.2,24.894,31,32,31Z"/><rect x="41" y="26" width="2" height="2"/><rect x="45" y="23" width="2" height="2"/><rect x="38" y="20" width="2" height="2"/></g></svg>
